<?xml version="1.0" encoding="utf-8"?><svg version="1.1" id="Layer_1" xmlns="http://www.w3.org/2000/svg" xmlns:xlink="http://www.w3.org/1999/xlink" x="0px" y="0px" viewBox="0 0 104.12 122.88" style="enable-background:new 0 0 104.12 122.88" xml:space="preserve"><style type="text/css">.st0{fill-rule:evenodd;clip-rule:evenodd;}</style><g><path class="st0" d="M25.8,2.53c1.85-0.76,3.73-1.49,5.72-2.04c2.34-0.65,2.56-0.63,4.9-0.07c3.56,0.85,6.73,2.09,9.48,3.75 c5.41,3.26,7.96,6.75,9.47,12.74c3.76-1.53,7.31-1.15,9.45,1.72c3.13,4.21,2.05,10.17-2.67,12.87c-1.86,1.06-4.09,1.14-7,0.05 c-0.37,1.39-0.84,2.81-1.42,4.27c-3.46,8.75-10.26,13.34-19.77,13.32c-11.13-0.02-18.6-8.03-21.13-17.55 c-2.86,1.05-5.06,0.96-6.9-0.09c-4.72-2.7-5.79-8.66-2.67-12.87c2.17-2.92,5.8-3.27,9.63-1.65C14.69,10.82,18.87,5.4,25.8,2.53 L25.8,2.53z M27.34,37.01c-0.6,0.1-1.16-0.3-1.26-0.9s0.3-1.16,0.9-1.26c2.46-0.41,4.92-0.6,7.37-0.58 c2.45,0.01,4.87,0.23,7.26,0.62c0.6,0.1,1,0.66,0.91,1.26c-0.1,0.6-0.66,1-1.26,0.91c-2.3-0.38-4.61-0.58-6.92-0.6 C32.03,36.43,29.7,36.61,27.34,37.01L27.34,37.01z M36.36,25.36c0.46,0,0.83,0.37,0.83,0.83c0,0.46-0.37,0.83-0.83,0.83 c-0.46,0-0.83-0.37-0.83-0.83C35.53,25.73,35.9,25.36,36.36,25.36L36.36,25.36z M43.06,19.83c1.21,0,2.19,0.98,2.19,2.19 c0,1.21-0.98,2.19-2.19,2.19c-1.21,0-2.19-0.98-2.19-2.19C40.86,20.81,41.84,19.83,43.06,19.83L43.06,19.83z M25.4,19.83 c1.21,0,2.19,0.98,2.19,2.19c0,1.21-0.98,2.19-2.19,2.19c-1.21,0-2.19-0.98-2.19-2.19C23.2,20.81,24.19,19.83,25.4,19.83 L25.4,19.83z M32.29,25.36c0.46,0,0.83,0.37,0.83,0.83c0,0.46-0.37,0.83-0.83,0.83c-0.46,0-0.83-0.37-0.83-0.83 C31.46,25.73,31.83,25.36,32.29,25.36L32.29,25.36z M55.85,19.17c0.55,3.28,0.51,6.75-0.24,10.46c0.04-0.16,0.07-0.31,0.11-0.47 c1.9,0.65,3.39,0.58,4.62-0.11c3.26-1.81,4-5.81,1.84-8.64C60.74,18.52,58.37,18.23,55.85,19.17L55.85,19.17z M12.31,29.18 c-0.58-3.3-0.57-6.7,0.06-9.97c-2.57-0.99-4.99-0.73-6.45,1.19c-2.16,2.83-1.42,6.83,1.84,8.64C8.98,29.73,10.44,29.81,12.31,29.18 L12.31,29.18z M24.24,10.49c4.3-0.44,6.1,1.37,9.35,1.61c1.27-0.07,2.53-0.03,3.67-0.41c0.97-0.32,1.96-0.64,2.98-0.89 c3.34-0.83,5.64-0.44,8.65,1.43c0.48,0.3,0.93,0.63,1.33,0.99c1.6,1.43,2.63,3.38,2.91,6.02c0.3,4.89-1.66,8.24-5.76,10.13 c3.09,8.49,0.97,14.18-8.95,15.68c-8.07,0.96-19.55-0.71-18.57-11.22c0.15-1.6,0.61-3.14,1.35-4.62 C11.67,24.58,14.89,11.44,24.24,10.49L24.24,10.49z M15.11,44.01c9.37,13.77,28.36,13.29,37.42,0.28 c9.17,4.8,14.14,19.51,12.91,29.35c-3.36,2.22-6.69,4.6-9.46,7.43c-2.89,2.95-5.18,6.39-6.29,10.6l0,0 c-0.03,0.11-0.05,0.22-0.05,0.33l-0.24,5.13c-1.11,1.71-2.28,2.74-3.42,3.22c-0.86,0.36-1.69,0.4-2.45,0.2 c-0.78-0.21-1.51-0.7-2.12-1.38c-0.91-1.02-1.52-2.46-1.65-4.11h0c-0.2-5.36,1.16-9.95,3.7-13.98c2.59-4.11,6.44-7.68,11.14-10.91 l0,0c0.45-0.31,0.73-0.86,0.67-1.45c-0.24-2.4-0.59-4.63-1.16-6.66c-0.6-2.1-1.44-4.01-2.64-5.71c-0.5-0.71-1.49-0.88-2.2-0.38 c-0.71,0.5-0.89,1.49-0.38,2.2c0.98,1.39,1.68,2.98,2.18,4.76c0.45,1.6,0.75,3.33,0.97,5.18c-4.68,3.32-8.55,7.01-11.24,11.29 c-2.88,4.57-4.42,9.77-4.18,15.84c0,0.02,0,0.04,0,0.06l0,0c0.95,4.25,4.79,10.31,8.74,12.08c0.65-2.06,1.18-3.15,2.41-4.37 c5.25-2.7,4.79-5.72,5.02-10.68c0.97-3.55,2.94-6.49,5.44-9.04c2.52-2.58,5.58-4.78,8.68-6.84c1.73,2.91,2,3.23,0.72,8.04 l-7.08,17.08c0.61-0.13,1.22-0.25,1.82-0.36c1.79-0.3,3.57-0.45,5.09-0.28c1.35,0.15,2.84,0.43,4.29,0.88 c1.26,0.39,2.49,0.83,3.58,1.5c0.04,0.02,0.08,0.05,0.11,0.08l0,0l0.64,0.46c8.25,5.97,15.98,11.57,25.89,9.11 c0.92-0.23,1.86,0.75,2.08,1.68c0.23,0.92-0.34,1.86-1.26,2.08c-11.46,2.85-19.82-3.21-28.73-9.67l-0.6-0.43 c-0.82-0.49-1.75-0.88-2.72-1.17c-1.22-0.38-2.5-0.61-3.66-0.74c-1.18-0.13-2.64,0-4.15,0.25c-1.37,0.23-2.74,0.56-3.99,0.89 l-1.85,4.56c2.67-0.19,5.13,0.76,7.07,4.44c0.63,4.27-1.04,7.14-5.96,8.04l-12.47-2.91c-2.69-1.85-3.53-4.5-2.36-8.04 c-6.66-2.17-8.98-8.14-9.84-15.39l-3.53,2.61c0.56-1.15,0.93-2.46,1.03-3.87l0,0c0-0.02,0-0.04,0-0.06 c0.23-6.06-1.28-11.26-4.15-15.83c-2.68-4.28-6.53-7.98-11.21-11.3c0.21-1.87,0.5-3.61,0.93-5.2c0.49-1.76,1.16-3.35,2.15-4.74 c0.5-0.71,0.33-1.7-0.38-2.2c-0.71-0.5-1.7-0.33-2.2,0.38c-1.2,1.7-2.02,3.61-2.61,5.73c-0.56,2.04-0.89,4.26-1.13,6.64 c-0.06,0.59,0.22,1.13,0.67,1.45l0,0c4.7,3.23,8.53,6.8,11.1,10.91c2.53,4.03,3.87,8.62,3.67,13.99h0 c-0.13,1.65-0.74,3.09-1.65,4.11c-0.61,0.68-1.34,1.17-2.12,1.38c-0.75,0.21-1.59,0.16-2.45-0.2c-1.14-0.48-2.32-1.5-3.42-3.22 l-0.24-5.13c-0.01-0.12-0.02-0.23-0.05-0.33l0,0c-1.11-4.22-3.4-7.65-6.29-10.6c-2.8-2.87-6.17-5.26-9.56-7.5 c-0.09-0.06-0.19-0.11-0.29-0.15l0.89-7.41c1.16-7.75,1.44-10.07,6.64-16.54C11.1,47.3,13.01,45.47,15.11,44.01L15.11,44.01z M21.59,103.64l3.36,8.01c1.42,4.35,0.36,7.1-3.05,8.32l-11.23,2.91c-8.03-0.8-9.42-11.17,0.69-12.89L0,81.44 c0.46-1.43,0.11-3.33,1.39-4.3l0.03-0.25c2.88,1.93,5.68,4,8.02,6.4c2.5,2.55,4.47,5.49,5.44,9.04l0.25,5.31 c0,0.27,0.08,0.55,0.23,0.8c1.54,2.53,3.32,4.07,5.1,4.82C20.84,103.43,21.21,103.55,21.59,103.64L21.59,103.64z"/></g></svg>